<svg width="1200" height="1200" viewBox="0 0 1200 1200" fill="none" xmlns="http://www.w3.org/2000/svg">
<rect width="1200" height="1200" fill="#F9F871"/>
<mask id="mask0_0_1" style="mask-type:alpha" maskUnits="userSpaceOnUse" x="220" y="273" width="760" height="927">
<path d="M691.091 822.677V892.489H706.273C857.197 892.489 979.546 1014.87 979.546 1165.83V1200H220.455V1165.83C220.455 1014.87 342.803 892.489 493.727 892.489H508.909V822.677C443.486 791.589 396.458 728.055 388.613 652.863C366.505 649.737 349.5 630.734 349.5 607.757V554.607C349.5 532.034 365.914 513.295 387.455 509.68V486.271C387.455 368.856 482.614 273.671 600 273.671C717.386 273.671 812.546 368.856 812.546 486.271V509.68C834.086 513.295 850.5 532.034 850.5 554.607V607.757C850.5 630.734 833.495 649.737 811.387 652.863C803.542 728.055 756.515 791.589 691.091 822.677Z" fill="white"/>
</mask>
<g mask="url(#mask0_0_1)">
<path d="M691.091 822.677V892.489H706.273C857.197 892.489 979.546 1014.87 979.546 1165.83V1200H220.455V1165.83C220.455 1014.87 342.803 892.489 493.727 892.489H508.909V822.677C443.486 791.589 396.458 728.055 388.613 652.863C366.505 649.737 349.5 630.734 349.5 607.757V554.607C349.5 532.034 365.914 513.295 387.455 509.68V486.271C387.455 368.856 482.614 273.671 600 273.671C717.386 273.671 812.546 368.856 812.546 486.271V509.68C834.086 513.295 850.5 532.034 850.5 554.607V607.757C850.5 630.734 833.495 649.737 811.387 652.863C803.542 728.055 756.515 791.589 691.091 822.677Z" fill="#D0C6AC"/>
<path d="M1222.45 273.671H220.455V1336.67H1222.45V273.671Z" fill="#EDB98A"/>
<path fill-rule="evenodd" clip-rule="evenodd" d="M812.545 573.589V660.907C812.545 778.323 717.386 873.507 600 873.507C482.614 873.507 387.455 778.323 387.455 660.907V573.589V630.536C387.455 747.951 482.614 843.136 600 843.136C717.386 843.136 812.545 747.951 812.545 630.536V573.589Z" fill="black" fill-opacity="0.1"/>
</g>
<mask id="mask1_0_1" style="mask-type:alpha" maskUnits="userSpaceOnUse" x="220" y="893" width="760" height="307">
<path fill-rule="evenodd" clip-rule="evenodd" d="M727.619 893.507C868.567 904.4 979.546 1022.25 979.546 1166.03V1200H220.455V1166.03C220.455 1020.94 333.465 902.255 476.241 893.236C475.259 897.324 474.75 901.512 474.75 905.777C474.75 950.856 531.676 987.4 601.898 987.4C672.12 987.4 729.046 950.856 729.046 905.777C729.046 901.606 728.558 897.509 727.619 893.507L727.619 893.507Z" fill="white"/>
</mask>
<g mask="url(#mask1_0_1)">
<path fill-rule="evenodd" clip-rule="evenodd" d="M727.619 893.507C868.567 904.4 979.546 1022.25 979.546 1166.03V1200H220.455V1166.03C220.455 1020.94 333.465 902.255 476.241 893.236C475.259 897.324 474.75 901.512 474.75 905.777C474.75 950.856 531.676 987.4 601.898 987.4C672.12 987.4 729.046 950.856 729.046 905.777C729.046 901.606 728.558 897.509 727.619 893.507L727.619 893.507Z" fill="#E6E6E6"/>
<path d="M1101 782.393H99V1200H1101V782.393Z" fill="#4E2A8E"/>
<path fill-rule="evenodd" clip-rule="evenodd" d="M674.532 1066.93C679.39 1088.8 671.1 1109.61 654.303 1123.89C646.406 1130.6 637.472 1135.56 627.523 1138.45C621.984 1140.06 616.197 1141.19 610.453 1141.75C606.142 1142.17 599.887 1140.23 596.065 1141.33C591.818 1142.55 586.356 1148.41 581.807 1150.3C579.258 1151.36 576.614 1152.29 573.96 1153.06C568.242 1154.72 562.327 1155.84 556.45 1156.76C550.372 1157.72 525.015 1161.71 528.155 1150.55C529.234 1146.71 539.962 1141.04 542.291 1138.46C544.012 1136.56 554.226 1125.69 553.749 1122.16C553.598 1121.04 547.117 1115.97 545.595 1114.26C542.147 1110.39 538.909 1106.45 537.073 1101.54C533.929 1093.13 534.094 1082.56 535.138 1073.75C537.75 1051.71 548.673 1037.08 567.789 1026.11C578.624 1019.89 590.406 1016.47 602.726 1014.96C617.74 1013.13 629.711 1013.08 642.452 1021.61C659.229 1032.85 670.065 1046.92 674.532 1066.93ZM655.056 1093.46C659.178 1092.32 653.887 1081.87 650.963 1086.93C649.909 1088.75 652.72 1094.1 655.056 1093.46ZM648.145 1073.25C648.479 1074.62 649.791 1075.04 650.983 1074.87C653.83 1074.48 652.045 1071.15 652.127 1069.66C652.279 1066.82 652.532 1059.64 651.474 1057.05C649.528 1052.3 647.772 1053.21 646.64 1057.87C645.626 1062.04 647.105 1069.06 648.145 1073.25ZM644.169 1089.5C647.366 1087.61 638.93 1066.05 637.076 1062.97C629.897 1051.03 627.575 1072.2 626.474 1077.43C625.998 1079.69 620.713 1103.18 627.758 1095.61C631.52 1091.57 625.641 1078.14 636.272 1081.26C640.007 1082.36 637.306 1082.04 639.592 1085.47C640.428 1086.72 641.328 1091.17 644.169 1089.5ZM620.096 1084.58C623.08 1079.46 609.984 1081.85 608.474 1081.94C608.832 1075.11 610.165 1068.19 610.147 1061.35C610.142 1059.55 610.772 1053.04 606.508 1056.11C604.785 1057.35 605.378 1063.06 605.233 1064.77C604.891 1068.78 601.637 1082.64 604.823 1085.87C607.082 1088.17 618.841 1086.71 620.096 1084.58ZM601.883 1075.32C603.165 1070.22 601.563 1059.17 594.881 1059.07C592.554 1059.04 593.607 1062.23 593.032 1062.56C588.99 1064.92 587.231 1064.62 584.836 1068.82C575.397 1085.33 596.473 1097.08 601.883 1075.32ZM579.006 1089.87C581.896 1089.07 581.079 1051.98 577.749 1051.96C572.023 1051.93 577.512 1070.34 575.342 1072.81C574.693 1073.55 571.447 1072.86 570.597 1073.02C566.27 1073.82 563.421 1073.37 562.093 1070.72C560.912 1068.36 563.464 1052.19 557.321 1060.13C557.377 1062.93 557.421 1065.73 557.454 1068.53C558.729 1071.24 558.253 1072.89 556.025 1073.49C555.914 1075.27 557.512 1076.76 557.532 1077.35C557.628 1080.27 555.695 1093.41 560.949 1092.78C564.308 1092.37 562.166 1079.56 562.152 1077.47C566.488 1077.58 571.031 1078.06 575.342 1077.5C575.363 1079.13 574.248 1091.18 579.006 1089.87ZM633.54 1067.12C635.186 1069.43 636.648 1071.75 637.955 1074.12C635.428 1074.33 632.899 1074.54 630.364 1074.72C631.397 1072.18 632.428 1069.65 633.54 1067.12ZM595.912 1067.12C596.464 1068.73 596.884 1079.61 590.769 1078.42C587.276 1077.75 588.847 1071.73 589.836 1070.48C591.924 1067.86 593.149 1068.78 595.912 1067.12Z" fill="white"/>
</g>
<mask id="mask2_0_1" style="mask-type:alpha" maskUnits="userSpaceOnUse" x="528" y="695" width="144" height="73">
<path fill-rule="evenodd" clip-rule="evenodd" d="M528.334 703.154C532.349 739.189 562.903 767.207 600 767.207C637.212 767.207 667.84 739.015 671.703 702.82C672.014 699.907 668.761 695.075 664.685 695.075C608.156 695.075 564.846 695.075 535.807 695.075C531.707 695.075 527.932 699.549 528.334 703.154Z" fill="white"/>
</mask>
<g mask="url(#mask2_0_1)">
<path fill-rule="evenodd" clip-rule="evenodd" d="M528.334 703.154C532.349 739.189 562.903 767.207 600 767.207C637.212 767.207 667.84 739.015 671.703 702.82C672.014 699.907 668.761 695.075 664.685 695.075C608.156 695.075 564.846 695.075 535.807 695.075C531.707 695.075 527.932 699.549 528.334 703.154Z" fill="black" fill-opacity="0.7"/>
<path d="M641.75 653.314H562.046C551.565 653.314 543.068 661.813 543.068 672.296V695.075C543.068 705.559 551.565 714.057 562.046 714.057H641.75C652.231 714.057 660.727 705.559 660.727 695.075V672.296C660.727 661.813 652.231 653.314 641.75 653.314Z" fill="white"/>
<path d="M581.023 820.357C604.081 820.357 622.773 801.66 622.773 778.596C622.773 755.533 604.081 736.836 581.023 736.836C557.965 736.836 539.273 755.533 539.273 778.596C539.273 801.66 557.965 820.357 581.023 820.357Z" fill="#FF4F6D"/>
<path d="M618.977 820.357C642.035 820.357 660.727 801.66 660.727 778.596C660.727 755.533 642.035 736.836 618.977 736.836C595.919 736.836 577.227 755.533 577.227 778.596C577.227 801.66 595.919 820.357 618.977 820.357Z" fill="#FF4F6D"/>
</g>
<path fill-rule="evenodd" clip-rule="evenodd" d="M554.455 630.536C554.455 647.309 574.846 660.907 600 660.907C625.154 660.907 645.546 647.309 645.546 630.536" fill="black" fill-opacity="0.16"/>
<path fill-rule="evenodd" clip-rule="evenodd" d="M448.79 563.898C455.798 549.476 471.579 539.421 489.923 539.421C508.202 539.421 523.936 549.405 530.981 563.746C533.074 568.005 530.096 571.492 527.092 568.908C517.789 560.908 504.577 555.912 489.923 555.912C475.726 555.912 462.885 560.601 453.638 568.167C450.257 570.933 446.74 568.116 448.79 563.898Z" fill="black" fill-opacity="0.6"/>
<path fill-rule="evenodd" clip-rule="evenodd" d="M668.926 563.898C675.934 549.476 691.715 539.421 710.059 539.421C728.338 539.421 744.072 549.405 751.117 563.746C753.21 568.005 750.232 571.492 747.228 568.908C737.925 560.908 724.714 555.912 710.059 555.912C695.863 555.912 683.021 560.601 673.774 568.167C670.394 570.933 666.876 568.116 668.926 563.898Z" fill="black" fill-opacity="0.6"/>
<path fill-rule="evenodd" clip-rule="evenodd" d="M488.214 471.649C466.174 472.667 430.542 488.687 431.46 510.919C431.49 511.646 432.559 511.966 433.081 511.406C443.537 500.171 517.777 488.818 543.927 494.835C546.32 495.386 548.138 493.024 546.622 491.319C533.634 476.709 507.96 470.718 488.214 471.649Z" fill="black" fill-opacity="0.6"/>
<path fill-rule="evenodd" clip-rule="evenodd" d="M715.582 471.649C737.622 472.667 773.254 488.687 772.336 510.919C772.306 511.646 771.237 511.966 770.715 511.406C760.259 500.171 686.018 488.818 659.869 494.835C657.476 495.386 655.658 493.024 657.174 491.319C670.162 476.709 695.836 470.718 715.582 471.649Z" fill="black" fill-opacity="0.6"/>
<mask id="mask3_0_1" style="mask-type:alpha" maskUnits="userSpaceOnUse" x="99" y="137" width="1002" height="1063">
<path d="M1101 137H99V1200H1101V137Z" fill="white"/>
</mask>
<g mask="url(#mask3_0_1)">
<g opacity="0.439991">
<path opacity="0.439991" fill-rule="evenodd" clip-rule="evenodd" d="M330.139 527.178C382.562 520.494 443.169 499.703 502.614 465.373C548.66 438.782 588.021 407.526 618.298 375.234C605.291 405.257 589.542 431.557 571.049 454.135C619.157 433.167 651.913 399.456 669.319 353.002C670.753 356.502 672.246 359.998 673.8 363.488C719.11 465.282 802.283 532.567 880.864 539.995V486.271C880.864 331.115 755.117 205.336 600 205.336C463.041 205.336 348.979 303.391 324.151 433.145C323.746 433.129 323.34 433.121 322.932 433.121C301.97 433.121 284.977 454.368 284.977 480.577C284.977 505.184 299.957 525.417 319.136 527.798V528.384C320.337 528.274 321.542 528.157 322.752 528.032C322.812 528.032 322.872 528.032 322.932 528.032C325.396 528.032 327.806 527.738 330.139 527.178Z" fill="white" fill-opacity="0.16"/>
</g>
<mask id="mask4_0_1" style="mask-type:alpha" maskUnits="userSpaceOnUse" x="372" y="509" width="460" height="456">
<path fill-rule="evenodd" clip-rule="evenodd" d="M528.57 705.467C536.856 699.268 586.361 696.892 595.285 691.618C598.071 689.97 600.232 688.301 601.897 686.647C603.563 688.301 605.726 689.97 608.511 691.618C617.434 696.892 666.939 699.268 675.225 705.467C683.614 711.744 689.738 726.148 689.068 737.409C688.263 750.921 673.486 783.163 636.711 786.877C628.685 777.944 616.081 772.182 601.897 772.182C587.715 772.182 575.11 777.944 567.084 786.877C530.311 783.163 515.533 750.921 514.728 737.409C514.058 726.148 520.182 711.744 528.57 705.467ZM672.651 770.648C672.656 770.646 672.662 770.643 672.667 770.642C672.661 770.643 672.656 770.646 672.651 770.648ZM531.095 770.629C531.11 770.636 531.138 770.646 531.158 770.653C531.138 770.646 531.116 770.637 531.095 770.629ZM831.001 622.887C829.528 600.28 824.986 577.962 821.024 555.694C819.957 549.699 814.154 509.05 811.539 509.05C810.657 543.633 807.619 577.691 803.701 612.083C802.529 622.364 801.303 632.648 800.496 642.966C799.844 651.3 801.006 661.371 798.987 669.432C796.411 679.709 783.503 689.298 773.464 692.838C748.413 701.671 727.519 665.113 706.125 654.42C678.351 640.538 630.606 637.233 602.208 655.326C573.189 637.233 525.444 640.538 497.67 654.42C476.277 665.113 455.382 701.671 430.333 692.838C420.293 689.298 407.382 679.709 404.809 669.432C402.789 661.371 403.951 651.3 403.3 642.966C402.494 632.648 401.266 622.364 400.094 612.083C396.178 577.691 393.138 543.633 392.257 509.05C389.641 509.05 383.837 549.699 382.771 555.694C378.809 577.962 374.268 600.28 372.795 622.887C371.28 646.119 373.088 669.136 377.85 691.898C380.124 702.773 382.781 713.585 385.628 724.323C388.793 736.254 384.414 759.486 385.831 771.733C388.513 794.905 399.426 840.097 411.682 860.033C417.606 869.669 424.549 875.685 432.303 883.451C439.766 890.925 442.883 902.512 450.938 910.472C465.952 925.31 487.828 934.141 510.297 936.312C530.457 953.423 563.964 964.621 601.897 964.621C639.832 964.621 673.338 953.423 693.499 936.312C715.966 934.141 737.843 925.31 752.859 910.472C760.912 902.512 764.029 890.925 771.493 883.451C779.246 875.685 786.189 869.669 792.114 860.033C804.369 840.097 815.284 794.905 817.964 771.733C819.381 759.486 815.002 736.254 818.168 724.323C821.016 713.585 823.671 702.773 825.946 691.898C830.706 669.136 832.515 646.119 831.001 622.887Z" fill="white"/>
</mask>
<g mask="url(#mask4_0_1)">
<path fill-rule="evenodd" clip-rule="evenodd" d="M528.57 705.467C536.856 699.268 586.361 696.892 595.285 691.618C598.071 689.97 600.232 688.301 601.897 686.647C603.563 688.301 605.726 689.97 608.511 691.618C617.434 696.892 666.939 699.268 675.225 705.467C683.614 711.744 689.738 726.148 689.068 737.409C688.263 750.921 673.486 783.163 636.711 786.877C628.685 777.944 616.081 772.182 601.897 772.182C587.715 772.182 575.11 777.944 567.084 786.877C530.311 783.163 515.533 750.921 514.728 737.409C514.058 726.148 520.182 711.744 528.57 705.467ZM672.651 770.648C672.656 770.646 672.662 770.643 672.667 770.642C672.661 770.643 672.656 770.646 672.651 770.648ZM531.095 770.629C531.11 770.636 531.138 770.646 531.158 770.653C531.138 770.646 531.116 770.637 531.095 770.629ZM831.001 622.887C829.528 600.28 824.986 577.962 821.024 555.694C819.957 549.699 814.154 509.05 811.539 509.05C810.657 543.633 807.619 577.691 803.701 612.083C802.529 622.364 801.303 632.648 800.496 642.966C799.844 651.3 801.006 661.371 798.987 669.432C796.411 679.709 783.503 689.298 773.464 692.838C748.413 701.671 727.519 665.113 706.125 654.42C678.351 640.538 630.606 637.233 602.208 655.326C573.189 637.233 525.444 640.538 497.67 654.42C476.277 665.113 455.382 701.671 430.333 692.838C420.293 689.298 407.382 679.709 404.809 669.432C402.789 661.371 403.951 651.3 403.3 642.966C402.494 632.648 401.266 622.364 400.094 612.083C396.178 577.691 393.138 543.633 392.257 509.05C389.641 509.05 383.837 549.699 382.771 555.694C378.809 577.962 374.268 600.28 372.795 622.887C371.28 646.119 373.088 669.136 377.85 691.898C380.124 702.773 382.781 713.585 385.628 724.323C388.793 736.254 384.414 759.486 385.831 771.733C388.513 794.905 399.426 840.097 411.682 860.033C417.606 869.669 424.549 875.685 432.303 883.451C439.766 890.925 442.883 902.512 450.938 910.472C465.952 925.31 487.828 934.141 510.297 936.312C530.457 953.423 563.964 964.621 601.897 964.621C639.832 964.621 673.338 953.423 693.499 936.312C715.966 934.141 737.843 925.31 752.859 910.472C760.912 902.512 764.029 890.925 771.493 883.451C779.246 875.685 786.189 869.669 792.114 860.033C804.369 840.097 815.284 794.905 817.964 771.733C819.381 759.486 815.002 736.254 818.168 724.323C821.016 713.585 823.671 702.773 825.946 691.898C830.706 669.136 832.515 646.119 831.001 622.887Z" fill="#5E7AA9"/>
<path d="M1161.73 410.343H159.727V1336.67H1161.73V410.343Z" fill="#2C1B18"/>
</g>
<g filter="url(#filter0_d_0_1)">
<path d="M482.341 641.925H471.874C419.013 641.925 387.454 612.829 387.454 564.098C387.454 524.718 394.351 486.271 476.761 486.271H487.92C570.331 486.271 577.227 524.718 577.227 564.098C577.227 609.916 538.215 641.925 482.341 641.925ZM476.213 509.05C402.636 509.05 402.636 535.021 402.636 567.901C402.636 594.743 414.464 626.739 470.844 626.739H482.341C529.271 626.739 562.045 602.545 562.045 567.901C562.045 535.021 562.045 509.05 488.469 509.05H476.213Z" fill="#252C2F"/>
<path d="M717.659 641.925H707.192C654.331 641.925 622.773 612.829 622.773 564.098C622.773 524.718 629.669 486.271 712.079 486.271H723.239C805.649 486.271 812.545 524.718 812.545 564.098C812.545 609.916 773.533 641.925 717.659 641.925ZM711.531 509.05C637.955 509.05 637.955 535.021 637.955 567.901C637.955 594.743 649.794 626.739 706.162 626.739H717.659C764.59 626.739 797.364 602.545 797.364 567.901C797.364 535.021 797.364 509.05 723.787 509.05H711.531Z" fill="#252C2F"/>
<path d="M364.509 508.183C367.133 505.619 395.841 486.271 476.648 486.271C544.402 486.271 558.744 493.305 580.454 503.932L582.043 504.716C583.553 505.25 591.271 507.872 600.3 508.161C608.526 507.808 615.561 505.578 617.617 504.863C642.397 492.809 666.652 486.271 723.352 486.271C804.159 486.271 832.867 505.619 835.491 508.183C841.692 508.183 846.704 513.08 846.704 519.138V530.094C846.704 536.153 841.692 541.05 835.491 541.05C835.491 541.05 809.296 541.05 809.296 552.005C809.296 562.961 801.849 536.153 801.849 530.094V519.423C788.173 514.188 763.692 504.442 723.352 504.442C678.408 504.442 656.025 512.414 636.825 520.33L637.039 520.848L637.03 528.388L628.615 548.699L618.22 544.588C617.292 544.221 615.289 543.561 612.511 542.876C604.768 540.966 596.808 540.384 589.768 541.83C587.185 542.36 584.789 543.156 582.589 544.23L572.561 549.132L562.526 529.536L562.972 520.826L563.278 520.086C546.72 512.368 531.451 504.442 476.648 504.442C436.31 504.442 411.829 514.184 398.151 519.42V530.094C398.151 536.153 386.937 562.961 386.937 552.005C386.937 541.05 364.509 541.05 364.509 541.05C358.319 541.05 353.295 536.153 353.295 530.094V519.138C353.295 513.08 358.319 508.183 364.509 508.183Z" fill="#252C2F"/>
</g>
</g>
<path d="M600.433 305.762C643.725 305.762 678.82 270.67 678.82 227.381C678.82 184.092 643.725 149 600.433 149C557.142 149 522.047 184.092 522.047 227.381C522.047 270.67 557.142 305.762 600.433 305.762Z" fill="#36454F"/>
<mask id="mask5_0_1" style="mask-type:alpha" maskUnits="userSpaceOnUse" x="341" y="196" width="519" height="279">
<path fill-rule="evenodd" clip-rule="evenodd" d="M600.434 196.029C743.296 196.029 859.109 311.834 859.109 454.686V474.281H341.758V454.686C341.758 311.834 457.571 196.029 600.434 196.029Z" fill="white"/>
</mask>
<g mask="url(#mask5_0_1)">
<path fill-rule="evenodd" clip-rule="evenodd" d="M600.434 196.029C743.296 196.029 859.109 311.834 859.109 454.686V474.281H341.758V454.686C341.758 311.834 457.571 196.029 600.434 196.029Z" fill="#D8D8D8"/>
<path d="M1376.46 196.029H341.758V1293.36H1376.46V196.029Z" fill="#4C586A"/>
</g>
<path fill-rule="evenodd" clip-rule="evenodd" d="M342.873 389.832C405.367 344.236 491.316 321.438 600.72 321.438C710.117 321.438 795.897 344.234 858.057 389.824V389.825C866.11 395.731 870.867 405.119 870.867 415.105V534.517C870.867 543.174 863.848 550.193 855.19 550.193C852.228 550.193 849.328 549.354 846.823 547.774C781.598 506.617 700.518 486.039 603.586 486.039C505.912 486.039 422.654 506.933 353.813 548.722C346.411 553.215 336.769 550.857 332.276 543.456C330.787 541.004 330 538.19 330 535.321L330 415.159C330 405.145 334.784 395.734 342.873 389.832Z" fill="black"/>
<path fill-rule="evenodd" clip-rule="evenodd" d="M342.873 389.832C405.367 344.236 491.316 321.438 600.72 321.438C710.117 321.438 795.897 344.234 858.057 389.825C866.11 395.731 870.867 405.119 870.867 415.105V534.517C870.867 543.174 863.848 550.193 855.19 550.193C852.228 550.193 849.328 549.354 846.823 547.774C781.598 506.617 700.518 486.039 603.586 486.039C505.912 486.039 422.654 506.933 353.813 548.722C346.411 553.215 336.769 550.857 332.276 543.456C330.787 541.004 330 538.19 330 535.321L330 415.159C330 405.145 334.784 395.734 342.873 389.832Z" fill="#36454F"/>
<defs>
<filter id="filter0_d_0_1" x="349.295" y="484.271" width="501.409" height="163.654" filterUnits="userSpaceOnUse" color-interpolation-filters="sRGB">
<feFlood flood-opacity="0" result="BackgroundImageFix"/>
<feColorMatrix in="SourceAlpha" type="matrix" values="0 0 0 0 0 0 0 0 0 0 0 0 0 0 0 0 0 0 127 0" result="hardAlpha"/>
<feOffset dy="2"/>
<feGaussianBlur stdDeviation="2"/>
<feColorMatrix type="matrix" values="0 0 0 0 0 0 0 0 0 0 0 0 0 0 0 0 0 0 0.2 0"/>
<feBlend mode="normal" in2="BackgroundImageFix" result="effect1_dropShadow_0_1"/>
<feBlend mode="normal" in="SourceGraphic" in2="effect1_dropShadow_0_1" result="shape"/>
</filter>
</defs>
</svg>
