<?xml version="1.0" encoding="UTF-8" standalone="no"?>
<!DOCTYPE svg PUBLIC "-//W3C//DTD SVG 1.1//EN" "http://www.w3.org/Graphics/SVG/1.1/DTD/svg11.dtd">
<svg version="1.1" xmlns="http://www.w3.org/2000/svg" 
     xmlns:xlink="http://www.w3.org/1999/xlink" 
     preserveAspectRatio="xMidYMid meet" 
     width="42" 
     height="42" 
     viewBox="0 0 237 237" 
     fill="none">
  <path d="M118.5 1.0079e-05C87.0718 1.14528e-05 56.9309 12.4848 34.7078 34.7079C12.4848 56.9309 -4.18081e-06 87.0718 -5.1798e-06 118.5C-6.17879e-06 149.928 12.4848 180.069 34.7078 202.292C56.9309 224.515 87.0718 237 118.5 237L118.5 118.5L118.5 1.0079e-05Z" fill="#4E2A8E" fill-opacity="0.8"/>
  <path d="M118.5 237C149.928 237 180.069 224.515 202.292 202.292C224.515 180.069 237 149.928 237 118.5C237 87.0719 224.515 56.9309 202.292 34.7079C180.069 12.4848 149.928 9.3949e-07 118.5 -5.1798e-06L118.5 118.5L118.5 237Z" fill="#4E2A8E" fill-opacity="0.6"/>
  <g clip-path="url(#clip0_0_1)">
  <path d="M160.85 104.938H131.279L142.195 71.727C143.22 67.8379 140.273 64 136.25 64H99.35C96.275 64 93.6613 66.2771 93.2513 69.3219L85.0513 130.728C84.5644 134.412 87.4344 137.688 91.15 137.688H121.567L109.754 187.452C108.831 191.341 111.804 195 115.724 195C117.877 195 119.927 193.874 121.054 191.93L166.154 114.148C168.538 110.08 165.591 104.938 160.85 104.938Z" fill="#F9F871"/>
  </g>
  <defs>
  <clipPath id="clip0_0_1">
  <rect width="82" height="131" fill="white" transform="translate(85 64)"/>
  </clipPath>
  </defs>
</svg>

